<svg width="29" height="30" viewBox="0 0 29 30" fill="none" xmlns="http://www.w3.org/2000/svg">
<circle cx="14.4906" cy="15.4528" r="13.9906" fill="#141924" stroke="white"/>
<path d="M17.3939 21.776H5.43397V20.0812C5.43317 19.9051 5.47111 19.731 5.54507 19.5714C5.61903 19.4118 5.72718 19.2706 5.86176 19.1581C6.94608 18.2788 8.12144 17.5197 9.36745 16.8941C9.38589 16.8851 9.40146 16.8712 9.41236 16.8537C9.42326 16.8363 9.42906 16.8161 9.42908 16.7955V15.6298C9.25978 15.3413 9.14429 15.0241 9.0883 14.6939C8.95779 14.6829 8.7874 14.4987 8.60251 13.8437C8.35055 12.9461 8.61882 12.8148 8.84541 12.8349C8.80312 12.7161 8.77039 12.5941 8.74752 12.47C8.65828 12.081 8.65828 11.6768 8.74752 11.2878C8.86101 10.8289 9.09811 10.4103 9.43271 10.0783C9.62149 9.87654 9.83462 9.69941 10.0671 9.55102C10.2567 9.41657 10.4642 9.30971 10.6834 9.23358C10.8642 9.1715 11.0528 9.13526 11.2436 9.12594C11.7299 9.0745 12.22 9.17991 12.6429 9.42696C12.9249 9.57373 13.1618 9.79512 13.3281 10.0673C13.3281 10.0673 14.4647 10.1494 14.0804 12.4718C14.0575 12.5959 14.0248 12.7179 13.9825 12.8367C14.2091 12.8148 14.4774 12.948 14.2254 13.8456C14.0441 14.5005 13.8629 14.6848 13.7396 14.6957C13.6836 15.0225 13.5681 15.3361 13.3988 15.6207V16.801C13.3988 16.8216 13.4046 16.8418 13.4155 16.8592C13.4264 16.8766 13.442 16.8906 13.4605 16.8995C14.7062 17.5235 15.8816 18.2807 16.9661 19.1581C17.1007 19.2706 17.2089 19.4118 17.2828 19.5714C17.3568 19.731 17.3947 19.9051 17.3939 20.0812V21.776ZM16.8755 17.1093V17.788C16.8765 17.8632 16.8564 17.9372 16.8175 18.0014C17.0405 18.1675 17.2652 18.3426 17.4882 18.5269C17.7171 18.7187 17.9008 18.9593 18.0262 19.2312C18.1516 19.5031 18.2155 19.7997 18.2133 20.0995V21.7925H23.2851V20.1907C23.2637 19.97 23.1856 19.7588 23.0584 19.5777C22.9313 19.3967 22.7595 19.2521 22.56 19.1581C22.221 18.988 21.8665 18.8511 21.5014 18.7494C21.4815 18.7385 20.354 18.4411 19.8193 18.1547L19.7721 18.1255C19.7165 18.0892 19.6707 18.0395 19.6391 17.9809C19.6074 17.9222 19.5908 17.8566 19.5909 17.7898V17.2717V17.0893C19.5909 17.0893 21.1407 17.1367 21.8748 16.3814C21.8748 16.3814 20.8054 16.0767 20.9975 14.1156C21.1897 12.1544 20.7582 10.434 19.1848 10.58C19.1848 10.58 18.5069 9.75899 17.1565 10.2753C16.6997 10.4577 15.4471 10.9065 15.5196 13.623C15.5921 16.3395 14.5589 16.3595 14.5589 16.3595C14.5589 16.3595 15.0846 17.1258 16.8755 17.1093Z" fill="white"/>
</svg>
