<svg width="29" height="30" viewBox="0 0 29 30" fill="none" xmlns="http://www.w3.org/2000/svg">
<circle cx="14.4906" cy="15.4718" r="13.9906" fill="#141924" stroke="white"/>
<path d="M10 18H11.6C11.6 18.9 12.696 19.6667 14 19.6667C15.304 19.6667 16.4 18.9 16.4 18C16.4 17.0833 15.568 16.75 13.808 16.3083C12.112 15.8667 10 15.3167 10 13C10 11.5083 11.176 10.2417 12.8 9.81667V8H15.2V9.81667C16.824 10.2417 18 11.5083 18 13H16.4C16.4 12.1 15.304 11.3333 14 11.3333C12.696 11.3333 11.6 12.1 11.6 13C11.6 13.9167 12.432 14.25 14.192 14.6917C15.888 15.1333 18 15.6833 18 18C18 19.4917 16.824 20.7583 15.2 21.1833V23H12.8V21.1833C11.176 20.7583 10 19.4917 10 18Z" fill="white"/>
</svg>
