<svg width="29" height="30" viewBox="0 0 29 30" fill="none" xmlns="http://www.w3.org/2000/svg">
<circle cx="14.4906" cy="15.4717" r="13.9906" fill="#141924" stroke="white"/>
<path d="M9.62778 8.22673C9.15804 8.22692 8.78468 8.6015 8.78468 9.07223V10.3173H10.4713V9.07223C10.4713 9.01344 10.4638 8.95616 10.4562 8.90079C10.4146 8.69329 10.2982 8.51478 10.1364 8.39367H10.1364C10.125 8.38608 10.1137 8.37849 10.1024 8.3709C10.0241 8.31819 9.93602 8.27797 9.84113 8.25407C9.77346 8.23513 9.70239 8.22755 9.62905 8.22755C9.62895 8.22755 9.62885 8.22755 9.62875 8.22755L9.62778 8.22673ZM10.4108 8.22673C10.6214 8.42284 10.7586 8.69705 10.7768 9.00308C10.777 9.00536 10.7773 9.00708 10.7774 9.01067C10.7785 9.02961 10.7791 9.05163 10.7791 9.07249V10.4721V18.9479C10.9159 18.8587 11.072 18.8117 11.2282 18.8083C11.2871 18.8071 11.345 18.8159 11.4013 18.8272C11.5053 18.8462 11.6054 18.8829 11.6962 18.9433L11.7075 18.9319L11.7086 18.9331L12.4556 18.1835C10.9896 16.5975 11.0254 14.1143 12.5634 12.5714C14.1378 10.9918 16.6947 10.9913 18.2685 12.5703C19.8423 14.1493 19.8418 16.7144 18.2674 18.2939C16.7294 19.8369 14.2542 19.8729 12.6733 18.402L11.915 19.1629C12.1135 19.4625 12.0877 19.87 11.8511 20.1591V20.1591C11.8322 20.1819 11.8133 20.2024 11.7933 20.2232L10.7794 21.2404V22.2276C10.7794 22.4996 10.993 22.7138 11.2644 22.7138H18.3823V21.091C18.3823 20.6531 18.7388 20.2959 19.1753 20.2959H20.7939V8.71268C20.7939 8.44071 20.5803 8.22643 20.3087 8.22643H15.7839H11.2644L10.4108 8.22673ZM15.4158 11.694C14.4625 11.6942 13.5091 12.0597 12.7807 12.7905C11.3239 14.2521 11.3234 16.6166 12.7796 18.0775C14.2357 19.5384 16.5926 19.5379 18.0494 18.0763C19.5062 16.6147 19.5067 14.2503 18.0506 12.7894C17.3225 12.0589 16.3692 11.6938 15.4159 11.694H15.4158ZM15.4155 12.1286C16.2591 12.1285 17.1027 12.4507 17.7453 13.0955H17.7454C19.0306 14.3849 19.0301 16.4805 17.7442 17.7704C16.4585 19.0603 14.3698 19.0609 13.0845 17.7715C11.7993 16.4821 11.7996 14.3864 13.0851 13.0965C13.7279 12.4515 14.5716 12.1289 15.4153 12.1288L15.4155 12.1286ZM15.4156 12.4355C14.6514 12.4356 13.8872 12.7287 13.3032 13.3147C12.135 14.4866 12.1347 16.3816 13.3026 17.553C14.4702 18.7244 16.3589 18.724 17.527 17.5518C18.6951 16.3799 18.6956 14.485 17.5281 13.3136H17.528C16.9443 12.728 16.1802 12.4352 15.416 12.4353L15.4156 12.4355ZM13.8542 13.9698H16.1775C16.1981 13.9692 16.2186 13.9727 16.2378 13.9802C16.2569 13.9877 16.2744 13.999 16.2892 14.0134C16.304 14.0278 16.3157 14.045 16.3237 14.064C16.3318 14.0831 16.3359 14.1035 16.3359 14.1242C16.3359 14.1448 16.3318 14.1653 16.3237 14.1843C16.3157 14.2033 16.304 14.2206 16.2892 14.235C16.2744 14.2494 16.2569 14.2606 16.2378 14.2681C16.2186 14.2756 16.1981 14.2792 16.1775 14.2786H13.8542C13.8336 14.2792 13.8132 14.2756 13.794 14.2681C13.7748 14.2606 13.7573 14.2494 13.7425 14.235C13.7277 14.2206 13.716 14.2033 13.708 14.1843C13.7 14.1653 13.6958 14.1448 13.6958 14.1242C13.6958 14.1035 13.7 14.0831 13.708 14.064C13.716 14.045 13.7277 14.0278 13.7425 14.0134C13.7573 13.999 13.7748 13.9877 13.794 13.9802C13.8132 13.9727 13.8336 13.9692 13.8542 13.9698ZM13.8542 14.8913H17.125C17.1456 14.8907 17.1661 14.8943 17.1853 14.9017C17.2045 14.9092 17.222 14.9205 17.2368 14.9349C17.2515 14.9493 17.2633 14.9665 17.2713 14.9856C17.2793 15.0046 17.2834 15.025 17.2834 15.0457C17.2834 15.0664 17.2793 15.0868 17.2713 15.1058C17.2633 15.1249 17.2515 15.1421 17.2368 15.1565C17.222 15.1709 17.2045 15.1821 17.1853 15.1896C17.1661 15.1971 17.1456 15.2007 17.125 15.2001H13.8542C13.8336 15.2007 13.8132 15.1971 13.794 15.1896C13.7748 15.1821 13.7573 15.1709 13.7425 15.1565C13.7277 15.1421 13.716 15.1249 13.708 15.1058C13.7 15.0868 13.6958 15.0664 13.6958 15.0457C13.6958 15.025 13.7 15.0046 13.708 14.9856C13.716 14.9665 13.7277 14.9493 13.7425 14.9349C13.7573 14.9205 13.7748 14.9092 13.794 14.9017C13.8132 14.8943 13.8336 14.8907 13.8542 14.8913ZM13.8542 15.8443H17.125C17.1456 15.8437 17.1661 15.8473 17.1853 15.8548C17.2045 15.8622 17.222 15.8735 17.2368 15.8879C17.2515 15.9023 17.2633 15.9195 17.2713 15.9386C17.2793 15.9576 17.2834 15.978 17.2834 15.9987C17.2834 16.0194 17.2793 16.0398 17.2713 16.0588C17.2633 16.0779 17.2515 16.0951 17.2368 16.1095C17.222 16.1239 17.2045 16.1351 17.1853 16.1426C17.1661 16.1501 17.1456 16.1537 17.125 16.1531H13.8542C13.8336 16.1537 13.8132 16.1501 13.794 16.1426C13.7748 16.1351 13.7573 16.1239 13.7425 16.1095C13.7277 16.0951 13.716 16.0779 13.708 16.0588C13.7 16.0398 13.6958 16.0194 13.6958 15.9987C13.6958 15.978 13.7 15.9576 13.708 15.9386C13.716 15.9195 13.7277 15.9023 13.7425 15.8879C13.7573 15.8735 13.7748 15.8622 13.794 15.8548C13.8132 15.8473 13.8336 15.8437 13.8542 15.8443ZM13.8542 16.8441H17.125C17.1456 16.8435 17.1661 16.847 17.1853 16.8545C17.2045 16.862 17.222 16.8733 17.2368 16.8877C17.2515 16.9021 17.2633 16.9193 17.2713 16.9383C17.2793 16.9574 17.2834 16.9778 17.2834 16.9985C17.2834 17.0191 17.2793 17.0396 17.2713 17.0586C17.2633 17.0776 17.2515 17.0949 17.2368 17.1092C17.222 17.1236 17.2045 17.1349 17.1853 17.1424C17.1661 17.1499 17.1456 17.1534 17.125 17.1528H13.8542C13.8336 17.1534 13.8132 17.1499 13.794 17.1424C13.7748 17.1349 13.7573 17.1236 13.7425 17.1092C13.7277 17.0949 13.716 17.0776 13.708 17.0586C13.7 17.0396 13.6958 17.0191 13.6958 16.9985C13.6958 16.9778 13.7 16.9574 13.708 16.9383C13.716 16.9193 13.7277 16.9021 13.7425 16.8877C13.7573 16.8733 13.7748 16.862 13.794 16.8545C13.8132 16.847 13.8336 16.8435 13.8542 16.8441ZM11.2324 19.1145V19.1146C11.1488 19.1168 11.0641 19.1373 10.9863 19.1821C10.9394 19.2086 10.8948 19.2413 10.8543 19.2818L10.7345 19.4025L9.40746 20.7336L9.31182 20.8295L10.0329 21.5531L10.1289 21.4571L10.5165 21.0683C10.5166 21.0681 10.5168 21.068 10.5169 21.0678L11.5758 20.0055C11.5909 19.9903 11.6022 19.9789 11.614 19.9634V19.9633C11.6253 19.9481 11.6366 19.9329 11.648 19.9193C11.648 19.9193 11.648 19.9192 11.648 19.9192C11.6783 19.8741 11.7021 19.8259 11.718 19.7766C11.718 19.7765 11.718 19.7765 11.718 19.7764C11.7483 19.6778 11.752 19.5739 11.7256 19.4775C11.7256 19.4774 11.7255 19.4773 11.7255 19.4773C11.7067 19.4132 11.6775 19.3529 11.6344 19.299C11.6305 19.295 11.6269 19.2914 11.6231 19.2838C11.6214 19.2815 11.6196 19.2798 11.6191 19.2762C11.6189 19.2761 11.6188 19.2758 11.6186 19.2757C11.611 19.2681 11.6072 19.2643 11.5997 19.2567C11.5732 19.2302 11.5479 19.2101 11.5195 19.1915C11.4345 19.1357 11.335 19.1092 11.2349 19.1115L11.2324 19.1145ZM19.175 20.6055C18.9036 20.6055 18.6898 20.8194 18.6898 21.0915V22.4959L20.5757 20.6055H19.175ZM9.09365 21.0478L8.59461 21.5485L9.31594 22.2721L9.81487 21.7715L9.45423 21.4096L9.09365 21.0478ZM8.37693 21.7669L8.31796 21.8261C8.10134 22.0435 8.09719 22.372 8.29527 22.5716C8.49412 22.7711 8.82218 22.7669 9.03868 22.5488L9.09728 22.49L8.37693 21.7669Z" fill="#FCFCFF"/>
</svg>
